<svg xmlns="http://www.w3.org/2000/svg" xmlns:xlink="http://www.w3.org/1999/xlink" width="150" zoomAndPan="magnify" viewBox="0 0 112.5 37.5" height="50" preserveAspectRatio="xMidYMid meet" version="1.0"><defs><g/><clipPath id="9f2a5ae683"><path d="M 32 4 L 80 4 L 80 37.007812 L 32 37.007812 Z M 32 4 " clip-rule="nonzero"/></clipPath><clipPath id="1774ed3910"><path d="M 0.46875 0.261719 L 22 0.261719 L 22 33.007812 L 0.46875 33.007812 Z M 0.46875 0.261719 " clip-rule="nonzero"/></clipPath><clipPath id="c25d6fe708"><rect x="0" width="22" y="0" height="34"/></clipPath><clipPath id="7351bfdbd7"><path d="M 29 0.261719 L 47.597656 0.261719 L 47.597656 33.007812 L 29 33.007812 Z M 29 0.261719 " clip-rule="nonzero"/></clipPath><clipPath id="24d73eb475"><path d="M 0.597656 2 L 18.597656 2 L 18.597656 27 L 0.597656 27 Z M 0.597656 2 " clip-rule="nonzero"/></clipPath><clipPath id="7a98a0f390"><rect x="0" width="19" y="0" height="34"/></clipPath><clipPath id="c52ce613dd"><path d="M 20 1 L 29 1 L 29 27 L 20 27 Z M 20 1 " clip-rule="nonzero"/></clipPath><clipPath id="6df34d4cc7"><path d="M 22.972656 1.78125 L 29.710938 2.480469 L 27.175781 26.84375 L 20.4375 26.140625 Z M 22.972656 1.78125 " clip-rule="nonzero"/></clipPath><clipPath id="52a0fc39ee"><path d="M 22.972656 1.78125 L 29.710938 2.480469 L 27.175781 26.84375 L 20.4375 26.140625 Z M 22.972656 1.78125 " clip-rule="nonzero"/></clipPath><clipPath id="5289d24ee2"><rect x="0" width="48" y="0" height="34"/></clipPath></defs><g clip-path="url(#9f2a5ae683)"><g transform="matrix(1, 0, 0, 1, 32, 4)"><g clip-path="url(#5289d24ee2)"><g clip-path="url(#1774ed3910)"><g transform="matrix(1, 0, 0, 1, 0, -0.000000000000000888)"><g clip-path="url(#c25d6fe708)"><g fill="#ffffff" fill-opacity="1"><g transform="translate(0.524356, 26.688574)"><g><path d="M 10.890625 -25.125 C 12.222656 -25.125 13.523438 -24.925781 14.796875 -24.53125 C 16.078125 -24.144531 17.023438 -23.765625 17.640625 -23.390625 L 18.546875 -22.78125 L 16.265625 -18.296875 C 16.085938 -18.421875 15.835938 -18.578125 15.515625 -18.765625 C 15.203125 -18.953125 14.601562 -19.203125 13.71875 -19.515625 C 12.84375 -19.835938 12.03125 -20 11.28125 -20 C 10.34375 -20 9.617188 -19.800781 9.109375 -19.40625 C 8.597656 -19.007812 8.34375 -18.472656 8.34375 -17.796875 C 8.34375 -17.453125 8.460938 -17.132812 8.703125 -16.84375 C 8.941406 -16.5625 9.347656 -16.253906 9.921875 -15.921875 C 10.503906 -15.597656 11.015625 -15.332031 11.453125 -15.125 C 11.890625 -14.925781 12.566406 -14.628906 13.484375 -14.234375 C 15.078125 -13.554688 16.4375 -12.632812 17.5625 -11.46875 C 18.695312 -10.300781 19.265625 -8.976562 19.265625 -7.5 C 19.265625 -6.09375 19.007812 -4.859375 18.5 -3.796875 C 17.988281 -2.742188 17.289062 -1.914062 16.40625 -1.3125 C 15.519531 -0.71875 14.535156 -0.273438 13.453125 0.015625 C 12.378906 0.304688 11.210938 0.453125 9.953125 0.453125 C 8.878906 0.453125 7.820312 0.34375 6.78125 0.125 C 5.75 -0.09375 4.882812 -0.367188 4.1875 -0.703125 C 3.488281 -1.035156 2.859375 -1.359375 2.296875 -1.671875 C 1.742188 -1.992188 1.335938 -2.265625 1.078125 -2.484375 L 0.6875 -2.8125 L 3.5 -7.53125 C 3.738281 -7.332031 4.066406 -7.078125 4.484375 -6.765625 C 4.898438 -6.460938 5.640625 -6.050781 6.703125 -5.53125 C 7.773438 -5.007812 8.722656 -4.75 9.546875 -4.75 C 11.910156 -4.75 13.09375 -5.554688 13.09375 -7.171875 C 13.09375 -7.515625 13.007812 -7.828125 12.84375 -8.109375 C 12.675781 -8.398438 12.375 -8.691406 11.9375 -8.984375 C 11.507812 -9.273438 11.128906 -9.503906 10.796875 -9.671875 C 10.472656 -9.835938 9.9375 -10.09375 9.1875 -10.4375 C 8.445312 -10.789062 7.894531 -11.0625 7.53125 -11.25 C 6.039062 -11.976562 4.882812 -12.894531 4.0625 -14 C 3.25 -15.113281 2.84375 -16.304688 2.84375 -17.578125 C 2.84375 -19.796875 3.660156 -21.609375 5.296875 -23.015625 C 6.929688 -24.421875 8.796875 -25.125 10.890625 -25.125 Z M 10.890625 -25.125 "/></g></g></g></g></g></g><g clip-path="url(#7351bfdbd7)"><g transform="matrix(1, 0, 0, 1, 29, -0.000000000000000888)"><g clip-path="url(#7a98a0f390)"><g clip-path="url(#24d73eb475)"><g fill="#ffffff" fill-opacity="1"><g transform="translate(0.656591, 26.688574)"><g><path d="M 0.234375 -19.734375 L 0.234375 -24.671875 L 17.578125 -24.671875 L 17.578125 -19.734375 L 11.71875 -19.734375 L 11.71875 0 L 6.09375 0 L 6.09375 -19.734375 Z M 0.234375 -19.734375 "/></g></g></g></g></g></g></g><g clip-path="url(#c52ce613dd)"><g clip-path="url(#6df34d4cc7)"><g clip-path="url(#52a0fc39ee)"><path fill="#ffffff" d="M 25.894531 18.917969 C 25.964844 18.820312 26.082031 18.675781 26.183594 18.550781 C 26.285156 18.429688 26.371094 18.320312 26.441406 18.242188 C 26.507812 18.164062 26.554688 18.113281 26.566406 18.113281 C 26.582031 18.109375 26.566406 18.152344 26.503906 18.242188 C 26.445312 18.328125 26.335938 18.460938 26.230469 18.589844 C 26.121094 18.722656 26.011719 18.851562 25.9375 18.945312 C 25.894531 19.003906 25.863281 19.046875 25.839844 19.082031 C 25.824219 19.140625 25.804688 19.195312 25.789062 19.25 C 25.746094 19.378906 25.707031 19.5 25.664062 19.605469 C 25.707031 19.550781 25.757812 19.496094 25.8125 19.4375 C 25.953125 19.296875 26.128906 19.160156 26.34375 18.984375 C 26.558594 18.808594 26.8125 18.59375 27.046875 18.332031 C 27.277344 18.070312 27.488281 17.761719 27.644531 17.484375 C 27.804688 17.207031 27.90625 16.960938 27.996094 16.71875 C 28.085938 16.480469 28.160156 16.25 28.214844 16 C 28.269531 15.75 28.300781 15.488281 28.304688 15.335938 C 28.304688 15.246094 28.300781 15.199219 28.285156 15.171875 C 28.28125 15.199219 28.273438 15.234375 28.265625 15.269531 C 28.234375 15.386719 28.183594 15.558594 28.136719 15.691406 C 28.09375 15.824219 28.050781 15.921875 28.019531 15.980469 C 27.992188 16.035156 27.96875 16.042969 27.964844 16.03125 C 27.960938 16.019531 27.980469 15.984375 28.007812 15.921875 C 28.03125 15.859375 28.058594 15.765625 28.097656 15.648438 C 28.136719 15.535156 28.1875 15.394531 28.214844 15.285156 C 28.226562 15.234375 28.234375 15.191406 28.242188 15.152344 C 28.21875 15.171875 28.195312 15.21875 28.144531 15.285156 C 28.089844 15.359375 28.011719 15.457031 27.855469 15.640625 C 27.699219 15.816406 27.46875 16.078125 27.238281 16.371094 C 27.015625 16.660156 26.796875 16.976562 26.613281 17.238281 C 25.855469 18.308594 26.199219 17.464844 25.96875 18.589844 C 25.941406 18.707031 25.914062 18.824219 25.882812 18.945312 C 25.886719 18.9375 25.890625 18.929688 25.894531 18.917969 Z M 26.78125 19.777344 C 26.757812 19.816406 26.734375 19.859375 26.707031 19.90625 C 26.628906 20.035156 26.523438 20.1875 26.445312 20.308594 C 26.367188 20.425781 26.324219 20.515625 26.3125 20.554688 C 26.296875 20.589844 26.3125 20.582031 26.367188 20.511719 C 26.417969 20.4375 26.507812 20.300781 26.59375 20.167969 C 26.683594 20.035156 26.773438 19.90625 26.828125 19.820312 L 26.832031 19.808594 C 26.808594 19.859375 26.777344 19.925781 26.738281 20.007812 C 26.636719 20.222656 26.46875 20.546875 26.289062 20.847656 C 26.105469 21.140625 25.910156 21.40625 25.691406 21.644531 C 25.472656 21.890625 25.226562 22.109375 24.984375 22.304688 C 24.738281 22.503906 24.492188 22.679688 24.191406 22.953125 C 23.886719 23.226562 23.53125 23.59375 23.179688 23.980469 C 22.828125 24.371094 22.480469 24.773438 22.191406 25.105469 C 21.902344 25.433594 21.667969 25.683594 21.511719 25.828125 C 21.355469 25.972656 21.277344 26.015625 21.195312 26.007812 C 21.117188 26.003906 21.039062 25.957031 20.984375 25.910156 C 20.929688 25.867188 20.902344 25.824219 20.945312 25.777344 C 20.988281 25.730469 21.105469 25.675781 21.394531 25.4375 C 21.679688 25.191406 22.140625 24.757812 22.464844 24.425781 C 22.785156 24.097656 22.96875 23.875 23.132812 23.625 C 23.292969 23.378906 23.460938 23.082031 23.53125 22.828125 C 23.5625 22.722656 23.582031 22.625 23.585938 22.527344 C 23.59375 22.503906 23.605469 22.480469 23.609375 22.449219 C 23.621094 22.390625 23.632812 22.316406 23.636719 22.238281 C 23.644531 22.164062 23.648438 22.085938 23.648438 21.964844 C 23.652344 21.847656 23.65625 21.699219 23.652344 21.558594 C 23.65625 21.417969 23.65625 21.296875 23.632812 21.128906 C 23.613281 20.96875 23.570312 20.761719 23.535156 20.640625 C 23.507812 20.515625 23.492188 20.472656 23.484375 20.46875 C 23.476562 20.46875 23.480469 20.511719 23.492188 20.59375 C 23.503906 20.679688 23.523438 20.792969 23.546875 20.949219 C 23.5625 21.101562 23.582031 21.28125 23.582031 21.496094 C 23.585938 21.699219 23.574219 21.933594 23.566406 22.121094 C 23.558594 22.101562 23.558594 22.082031 23.554688 22.066406 C 23.507812 21.78125 23.382812 21.445312 23.246094 21.113281 C 23.105469 20.773438 22.929688 20.429688 22.761719 20.035156 C 22.585938 19.644531 22.421875 19.199219 22.308594 18.660156 C 22.203125 18.113281 22.152344 17.472656 22.121094 17.035156 C 22.085938 16.601562 22.070312 16.378906 22.058594 16.25 L 22.054688 16.230469 C 22.078125 16.320312 22.113281 16.433594 22.152344 16.535156 C 22.210938 16.707031 22.273438 16.855469 22.3125 17.003906 C 22.359375 17.144531 22.390625 17.285156 22.40625 17.359375 C 22.421875 17.433594 22.425781 17.4375 22.4375 17.40625 C 22.441406 17.378906 22.449219 17.3125 22.417969 17.15625 C 22.382812 17.003906 22.304688 16.765625 22.246094 16.566406 C 22.214844 16.464844 22.183594 16.375 22.160156 16.300781 C 22.214844 16.402344 22.300781 16.542969 22.4375 16.722656 C 22.644531 17.003906 22.96875 17.367188 23.21875 17.722656 C 23.464844 18.074219 23.636719 18.414062 23.757812 18.765625 C 23.878906 19.117188 23.941406 19.484375 23.964844 19.875 C 23.992188 20.269531 23.976562 20.6875 23.941406 21.035156 C 23.90625 21.382812 23.847656 21.660156 23.796875 21.890625 C 23.75 22.121094 23.710938 22.316406 23.699219 22.457031 C 23.683594 22.601562 23.691406 22.703125 23.734375 22.738281 C 23.769531 22.773438 23.84375 22.742188 23.941406 22.609375 C 24.035156 22.476562 24.152344 22.242188 24.335938 21.847656 C 24.453125 21.589844 24.59375 21.265625 24.726562 20.957031 C 24.738281 20.929688 24.757812 20.890625 24.785156 20.839844 C 24.835938 20.742188 24.914062 20.597656 25.011719 20.417969 C 25.109375 20.246094 25.226562 20.046875 25.355469 19.789062 C 25.484375 19.53125 25.625 19.21875 25.710938 18.984375 C 25.761719 18.847656 25.792969 18.738281 25.8125 18.65625 C 25.835938 18.585938 25.851562 18.5 25.875 18.34375 C 25.902344 18.152344 25.9375 17.851562 25.957031 17.519531 C 25.96875 17.257812 25.964844 17.042969 26.011719 16.78125 C 26.035156 16.632812 26.082031 16.425781 26.128906 16.160156 C 26.179688 15.890625 26.230469 15.5625 26.257812 15.351562 C 26.296875 15.085938 26.304688 14.847656 26.316406 14.574219 C 26.332031 14.140625 26.316406 13.695312 26.34375 13.265625 C 26.347656 13.164062 26.359375 13.035156 26.375 12.878906 C 26.394531 12.71875 26.417969 12.535156 26.445312 12.265625 C 26.472656 11.902344 26.523438 11.46875 26.519531 11.109375 C 26.515625 10.808594 26.472656 10.425781 26.421875 10.117188 C 26.375 9.804688 26.324219 9.566406 26.273438 9.351562 C 26.238281 9.1875 26.199219 9.023438 26.160156 8.855469 C 26.121094 8.660156 26.078125 8.46875 26.039062 8.269531 C 25.996094 8.054688 25.957031 7.816406 25.902344 7.601562 C 25.878906 7.5 25.839844 7.347656 25.765625 7.128906 C 25.695312 6.910156 25.597656 6.621094 25.480469 6.34375 C 25.367188 6.066406 25.234375 5.800781 25.058594 5.511719 C 24.882812 5.21875 24.667969 4.90625 24.429688 4.605469 C 24.183594 4.304688 23.925781 4.011719 23.722656 3.75 C 23.523438 3.488281 23.378906 3.25 23.28125 3.027344 C 23.183594 2.804688 23.125 2.59375 23.085938 2.410156 C 23.046875 2.226562 23.03125 2.074219 23 1.976562 C 22.988281 1.925781 22.972656 1.890625 22.964844 1.863281 C 23.011719 1.914062 23.070312 1.96875 23.128906 2.03125 C 23.210938 2.113281 23.289062 2.207031 23.355469 2.28125 C 23.414062 2.355469 23.460938 2.421875 23.496094 2.457031 C 23.535156 2.492188 23.5625 2.5 23.558594 2.484375 C 23.554688 2.46875 23.527344 2.433594 23.460938 2.347656 C 23.394531 2.265625 23.296875 2.136719 23.210938 2.039062 C 23.128906 1.941406 23.054688 1.867188 22.996094 1.808594 C 23.039062 1.8125 23.113281 1.839844 23.230469 1.894531 C 23.402344 1.972656 23.671875 2.109375 23.917969 2.296875 C 24.160156 2.492188 24.382812 2.734375 24.542969 2.972656 C 24.707031 3.210938 24.8125 3.445312 24.910156 3.789062 C 25.007812 4.128906 25.097656 4.578125 25.183594 4.960938 C 25.214844 5.109375 25.25 5.246094 25.277344 5.371094 C 25.214844 5.210938 25.136719 5.023438 25.066406 4.878906 C 24.972656 4.6875 24.902344 4.582031 24.847656 4.5 C 24.789062 4.410156 24.742188 4.347656 24.722656 4.332031 C 24.710938 4.316406 24.726562 4.347656 24.769531 4.429688 C 24.820312 4.511719 24.894531 4.640625 24.96875 4.800781 C 25.046875 4.960938 25.117188 5.152344 25.1875 5.320312 C 25.257812 5.472656 25.320312 5.609375 25.363281 5.695312 C 25.386719 5.769531 25.40625 5.839844 25.425781 5.90625 C 25.5 6.164062 25.570312 6.359375 25.625 6.527344 C 25.679688 6.695312 25.71875 6.832031 25.757812 6.964844 C 25.792969 7.09375 25.828125 7.214844 25.863281 7.308594 C 25.894531 7.402344 25.921875 7.484375 25.953125 7.582031 C 26.003906 7.761719 26.070312 7.996094 26.109375 8.175781 C 26.191406 8.480469 26.1875 8.578125 26.230469 8.855469 C 26.242188 8.941406 26.265625 9.058594 26.289062 9.164062 C 26.335938 9.359375 26.386719 9.53125 26.433594 9.75 C 26.480469 9.96875 26.539062 10.296875 26.574219 10.625 C 26.605469 10.949219 26.625 11.277344 26.617188 11.578125 C 26.605469 12.046875 26.496094 12.5 26.445312 12.96875 C 26.429688 13.15625 26.417969 13.335938 26.410156 13.519531 C 26.40625 13.695312 26.390625 13.890625 26.382812 14.070312 C 26.371094 14.351562 26.367188 14.660156 26.355469 14.902344 C 26.347656 15.144531 26.332031 15.351562 26.300781 15.613281 C 26.265625 15.878906 26.222656 16.152344 26.191406 16.339844 C 26.160156 16.527344 26.113281 16.714844 26.082031 16.902344 C 26.058594 17.070312 26.042969 17.273438 26.03125 17.425781 C 26.007812 17.765625 26.007812 18.050781 25.941406 18.394531 C 25.894531 18.625 25.820312 18.898438 25.746094 19.132812 C 25.671875 19.363281 25.605469 19.5625 25.554688 19.691406 C 25.457031 19.945312 25.296875 20.1875 25.171875 20.433594 C 25.082031 20.609375 25 20.777344 24.933594 20.921875 C 24.78125 21.257812 24.832031 21.292969 24.613281 21.636719 C 24.539062 21.75 24.496094 21.835938 24.414062 22 C 24.335938 22.164062 24.25 22.355469 24.1875 22.488281 C 24.125 22.621094 24.089844 22.699219 24.070312 22.738281 C 24.054688 22.78125 24.0625 22.792969 24.070312 22.800781 C 24.074219 22.8125 24.078125 22.8125 24.09375 22.804688 C 24.105469 22.796875 24.125 22.777344 24.144531 22.753906 C 24.148438 22.746094 24.148438 22.734375 24.152344 22.726562 C 24.15625 22.726562 24.15625 22.722656 24.15625 22.722656 C 24.191406 22.707031 24.261719 22.644531 24.367188 22.5625 C 24.476562 22.484375 24.625 22.386719 24.734375 22.308594 C 24.84375 22.226562 24.921875 22.164062 24.988281 22.101562 C 25.054688 22.039062 25.117188 21.972656 25.082031 21.992188 C 25.050781 22.007812 24.929688 22.109375 24.765625 22.234375 C 24.601562 22.355469 24.390625 22.5 24.289062 22.570312 C 24.238281 22.597656 24.214844 22.617188 24.199219 22.621094 C 24.222656 22.566406 24.273438 22.492188 24.332031 22.363281 C 24.390625 22.238281 24.480469 22.054688 24.582031 21.875 C 24.683594 21.695312 24.816406 21.476562 24.886719 21.390625 C 24.960938 21.300781 24.960938 21.289062 24.996094 21.257812 C 25.082031 21.179688 25.199219 21.066406 25.359375 20.929688 C 25.5625 20.742188 25.84375 20.519531 26.066406 20.351562 C 26.292969 20.183594 26.46875 20.070312 26.59375 19.964844 C 26.675781 19.894531 26.734375 19.832031 26.78125 19.777344 Z M 26.214844 4.613281 C 26.238281 4.679688 26.285156 4.796875 26.308594 4.914062 C 26.335938 5.027344 26.34375 5.136719 26.347656 5.234375 C 26.355469 5.324219 26.359375 5.398438 26.359375 5.449219 C 26.367188 5.503906 26.375 5.527344 26.386719 5.53125 C 26.394531 5.535156 26.398438 5.515625 26.398438 5.449219 C 26.398438 5.378906 26.390625 5.265625 26.375 5.144531 C 26.363281 5.027344 26.339844 4.902344 26.320312 4.808594 C 26.304688 4.746094 26.285156 4.695312 26.273438 4.65625 C 26.304688 4.699219 26.351562 4.761719 26.410156 4.863281 C 26.488281 4.996094 26.589844 5.199219 26.664062 5.449219 C 26.742188 5.703125 26.796875 6.011719 26.804688 6.285156 C 26.808594 6.554688 26.769531 6.789062 26.714844 7.011719 C 26.664062 7.234375 26.605469 7.4375 26.546875 7.609375 C 26.488281 7.777344 26.425781 7.917969 26.371094 8.050781 C 26.316406 8.1875 26.265625 8.320312 26.242188 8.417969 C 26.238281 8.421875 26.238281 8.429688 26.234375 8.441406 C 26.234375 8.425781 26.230469 8.414062 26.226562 8.402344 C 26.222656 8.386719 26.21875 8.367188 26.214844 8.351562 C 26.214844 8.324219 26.21875 8.296875 26.21875 8.261719 C 26.226562 8.179688 26.238281 8.082031 26.261719 7.945312 C 26.277344 7.808594 26.3125 7.632812 26.328125 7.515625 C 26.347656 7.394531 26.359375 7.332031 26.359375 7.304688 C 26.351562 7.277344 26.339844 7.289062 26.324219 7.339844 C 26.308594 7.390625 26.292969 7.484375 26.265625 7.644531 C 26.242188 7.804688 26.210938 8.03125 26.199219 8.183594 C 26.195312 8.214844 26.195312 8.238281 26.191406 8.261719 C 26.027344 7.570312 25.984375 6.847656 26.03125 6.132812 C 26.046875 5.859375 26.097656 5.585938 26.140625 5.371094 C 26.179688 5.160156 26.210938 5.007812 26.21875 4.890625 C 26.230469 4.769531 26.21875 4.675781 26.214844 4.628906 C 26.214844 4.621094 26.210938 4.613281 26.210938 4.609375 Z M 23.230469 5.414062 C 23.332031 5.464844 23.507812 5.550781 23.660156 5.644531 C 23.816406 5.730469 23.949219 5.828125 24.023438 5.882812 C 24.097656 5.9375 24.113281 5.960938 24.089844 5.953125 C 24.066406 5.949219 24.003906 5.914062 23.914062 5.855469 C 23.824219 5.800781 23.707031 5.722656 23.59375 5.65625 C 23.480469 5.585938 23.371094 5.53125 23.296875 5.496094 C 23.242188 5.464844 23.203125 5.453125 23.175781 5.441406 C 23.171875 5.460938 23.195312 5.496094 23.238281 5.550781 C 23.289062 5.605469 23.355469 5.675781 23.519531 5.859375 C 23.679688 6.039062 23.933594 6.324219 24.234375 6.582031 C 24.535156 6.839844 24.882812 7.066406 25.136719 7.257812 C 25.382812 7.441406 25.53125 7.589844 25.640625 7.734375 C 25.753906 7.871094 25.828125 7.996094 25.90625 8.167969 C 25.949219 8.261719 25.992188 8.367188 26.035156 8.480469 C 26.019531 8.417969 26.003906 8.300781 25.976562 8.179688 C 25.972656 8.164062 25.964844 8.144531 25.957031 8.128906 C 25.921875 8.046875 25.871094 7.941406 25.792969 7.8125 C 25.714844 7.6875 25.605469 7.539062 25.507812 7.421875 C 25.410156 7.304688 25.324219 7.210938 25.273438 7.152344 C 25.222656 7.09375 25.214844 7.070312 25.230469 7.078125 C 25.25 7.085938 25.292969 7.128906 25.367188 7.203125 C 25.4375 7.28125 25.53125 7.390625 25.640625 7.535156 C 25.742188 7.683594 25.859375 7.863281 25.925781 7.980469 C 25.925781 7.992188 25.933594 8 25.941406 8.007812 C 25.933594 7.980469 25.925781 7.949219 25.914062 7.921875 C 25.894531 7.863281 25.886719 7.808594 25.859375 7.785156 C 25.828125 7.761719 25.777344 7.683594 25.714844 7.5625 C 25.652344 7.4375 25.578125 7.261719 25.46875 7.058594 C 25.363281 6.859375 25.230469 6.628906 25.042969 6.417969 C 24.859375 6.199219 24.621094 5.992188 24.378906 5.839844 C 24.140625 5.6875 23.894531 5.585938 23.703125 5.523438 C 23.511719 5.460938 23.382812 5.433594 23.296875 5.421875 C 23.269531 5.417969 23.246094 5.417969 23.230469 5.414062 Z M 26.351562 12.367188 C 26.308594 12.230469 26.226562 11.972656 26.140625 11.785156 C 26.058594 11.597656 25.980469 11.484375 25.941406 11.417969 C 25.898438 11.351562 25.894531 11.335938 25.90625 11.339844 C 25.914062 11.34375 25.933594 11.359375 25.980469 11.429688 C 26.027344 11.5 26.101562 11.625 26.164062 11.746094 C 26.226562 11.871094 26.273438 11.992188 26.308594 12.066406 C 26.339844 12.148438 26.355469 12.179688 26.367188 12.210938 C 26.375 12.226562 26.378906 12.242188 26.386719 12.257812 C 26.390625 12.207031 26.398438 12.15625 26.398438 12.101562 C 26.4375 11.738281 26.4375 11.683594 26.320312 11.316406 C 26.273438 11.15625 26.199219 10.988281 26.085938 10.753906 C 25.96875 10.519531 25.808594 10.214844 25.5625 9.882812 C 25.320312 9.546875 24.988281 9.183594 24.679688 8.902344 C 24.367188 8.621094 24.082031 8.421875 23.835938 8.253906 C 23.59375 8.085938 23.390625 7.957031 23.289062 7.898438 C 23.269531 7.890625 23.253906 7.878906 23.242188 7.875 C 23.253906 7.894531 23.246094 7.882812 23.285156 7.933594 C 23.328125 7.980469 23.445312 8.121094 23.570312 8.277344 C 23.691406 8.425781 23.65625 8.363281 23.753906 8.511719 C 23.851562 8.660156 23.910156 8.753906 23.90625 8.773438 C 23.90625 8.789062 23.84375 8.734375 23.769531 8.644531 C 23.699219 8.546875 23.796875 8.667969 23.65625 8.480469 C 23.511719 8.300781 23.3125 8.066406 23.214844 7.925781 L 23.207031 7.914062 C 23.210938 7.933594 23.21875 7.964844 23.230469 8 C 23.265625 8.128906 23.335938 8.359375 23.507812 8.699219 C 23.675781 9.042969 23.941406 9.492188 24.210938 9.894531 C 24.484375 10.296875 24.757812 10.644531 25.027344 10.964844 C 25.300781 11.285156 25.574219 11.570312 25.773438 11.828125 C 25.972656 12.085938 26.105469 12.3125 26.191406 12.566406 C 26.242188 12.722656 26.28125 12.886719 26.300781 13.074219 C 26.3125 12.984375 26.316406 12.882812 26.328125 12.773438 C 26.339844 12.660156 26.355469 12.539062 26.371094 12.421875 Z M 26.667969 11.03125 C 26.703125 10.921875 26.777344 10.71875 26.828125 10.550781 C 26.882812 10.390625 26.914062 10.269531 26.941406 10.1875 C 26.964844 10.113281 26.984375 10.070312 26.992188 10.070312 C 27.003906 10.066406 27.003906 10.101562 26.976562 10.210938 C 26.945312 10.324219 26.890625 10.511719 26.835938 10.679688 C 26.78125 10.851562 26.726562 10.996094 26.699219 11.09375 C 26.683594 11.136719 26.671875 11.171875 26.664062 11.195312 C 26.671875 11.351562 26.671875 11.492188 26.671875 11.613281 C 26.667969 11.820312 26.652344 11.972656 26.636719 12.109375 C 26.679688 11.996094 26.738281 11.882812 26.804688 11.753906 C 26.917969 11.53125 27.070312 11.25 27.207031 10.957031 C 27.34375 10.660156 27.464844 10.351562 27.546875 10.050781 C 27.632812 9.75 27.671875 9.460938 27.695312 9.136719 C 27.714844 8.8125 27.714844 8.457031 27.699219 8.214844 C 27.6875 8.023438 27.671875 7.90625 27.65625 7.84375 C 27.640625 7.921875 27.625 8.027344 27.601562 8.140625 C 27.570312 8.289062 27.527344 8.449219 27.488281 8.582031 C 27.445312 8.710938 27.410156 8.800781 27.386719 8.835938 C 27.367188 8.871094 27.363281 8.851562 27.371094 8.792969 C 27.386719 8.734375 27.414062 8.632812 27.449219 8.519531 C 27.484375 8.40625 27.527344 8.277344 27.554688 8.140625 C 27.582031 8.019531 27.605469 7.886719 27.617188 7.800781 C 27.609375 7.8125 27.601562 7.832031 27.59375 7.851562 C 27.570312 7.898438 27.535156 7.957031 27.445312 8.070312 C 27.351562 8.183594 27.199219 8.355469 27.058594 8.539062 C 26.917969 8.722656 26.789062 8.925781 26.703125 9.097656 C 26.296875 9.945312 26.492188 9.375 26.625 10.621094 C 26.640625 10.769531 26.652344 10.917969 26.65625 11.054688 C 26.660156 11.046875 26.664062 11.039062 26.667969 11.03125 Z M 26.410156 15.523438 C 26.492188 15.375 26.660156 15.117188 26.769531 14.9375 C 26.882812 14.761719 26.945312 14.664062 26.976562 14.597656 C 27.015625 14.539062 27.023438 14.507812 27.023438 14.519531 C 27.023438 14.53125 27.011719 14.585938 26.980469 14.664062 C 26.949219 14.746094 26.890625 14.84375 26.816406 14.96875 C 26.742188 15.097656 26.648438 15.242188 26.574219 15.355469 C 26.503906 15.46875 26.457031 15.546875 26.417969 15.609375 C 26.382812 15.671875 26.359375 15.71875 26.34375 15.761719 C 26.335938 15.773438 26.332031 15.785156 26.332031 15.792969 C 26.304688 15.957031 26.28125 16.113281 26.273438 16.195312 C 26.257812 16.324219 26.25 16.304688 26.242188 16.355469 C 26.285156 16.25 26.324219 16.148438 26.367188 16.050781 C 26.425781 15.929688 26.480469 15.824219 26.609375 15.664062 C 26.730469 15.507812 26.925781 15.292969 27.121094 15.042969 C 27.320312 14.789062 27.523438 14.503906 27.683594 14.238281 C 27.84375 13.972656 27.960938 13.726562 28.035156 13.496094 C 28.113281 13.265625 28.148438 13.050781 28.164062 12.789062 C 28.183594 12.527344 28.179688 12.222656 28.164062 12.007812 C 28.15625 11.859375 28.144531 11.753906 28.128906 11.695312 C 28.121094 11.738281 28.109375 11.78125 28.101562 11.824219 C 28.082031 11.90625 28.066406 11.972656 28.046875 12.089844 C 28.023438 12.21875 27.992188 12.398438 27.96875 12.519531 C 27.9375 12.636719 27.910156 12.695312 27.902344 12.695312 C 27.894531 12.691406 27.894531 12.628906 27.90625 12.570312 C 27.914062 12.511719 27.9375 12.453125 27.960938 12.335938 C 27.988281 12.210938 28.023438 12.023438 28.046875 11.882812 C 28.0625 11.804688 28.074219 11.734375 28.078125 11.683594 C 28.066406 11.707031 28.054688 11.746094 28.039062 11.792969 C 27.996094 11.90625 27.925781 12.070312 27.804688 12.289062 C 27.6875 12.5 27.515625 12.769531 27.339844 13.085938 C 27.167969 13.40625 26.996094 13.777344 26.859375 14.066406 C 26.722656 14.359375 26.621094 14.566406 26.5625 14.683594 C 26.421875 14.96875 26.417969 14.9375 26.40625 15.066406 C 26.398438 15.234375 26.371094 15.441406 26.367188 15.484375 C 26.363281 15.53125 26.355469 15.582031 26.351562 15.632812 C 26.363281 15.605469 26.382812 15.570312 26.410156 15.523438 Z M 23.324219 10.804688 C 23.382812 10.898438 23.484375 11.042969 23.570312 11.164062 C 23.667969 11.300781 23.75 11.414062 23.804688 11.496094 C 23.859375 11.578125 23.886719 11.628906 23.902344 11.640625 C 23.910156 11.648438 23.914062 11.628906 23.878906 11.5625 C 23.847656 11.5 23.777344 11.386719 23.695312 11.261719 C 23.613281 11.132812 23.511719 10.984375 23.445312 10.882812 C 23.414062 10.832031 23.390625 10.796875 23.367188 10.765625 C 23.417969 10.785156 23.5 10.835938 23.597656 10.898438 C 23.714844 10.972656 23.851562 11.058594 24.0625 11.226562 C 24.277344 11.398438 24.570312 11.648438 24.832031 11.917969 C 25.09375 12.183594 25.324219 12.472656 25.480469 12.703125 C 25.632812 12.933594 25.710938 13.113281 25.792969 13.316406 C 25.875 13.523438 25.960938 13.757812 26.015625 13.96875 C 26.070312 14.179688 26.089844 14.367188 26.113281 14.566406 C 26.128906 14.765625 26.144531 14.96875 26.15625 15.117188 C 26.183594 15.425781 26.191406 15.449219 26.136719 15.78125 C 26.132812 15.804688 26.128906 15.832031 26.121094 15.863281 C 26.121094 15.855469 26.125 15.851562 26.121094 15.84375 C 26.113281 15.796875 26.101562 15.730469 26.082031 15.632812 C 26.0625 15.535156 26.03125 15.40625 25.988281 15.269531 C 25.949219 15.132812 25.898438 14.984375 25.863281 14.90625 C 25.828125 14.824219 25.8125 14.816406 25.8125 14.824219 C 25.808594 14.835938 25.820312 14.871094 25.839844 14.917969 C 25.851562 14.96875 25.875 15.03125 25.910156 15.171875 C 25.949219 15.316406 26.011719 15.539062 26.039062 15.746094 C 26.0625 15.917969 26.066406 16.078125 26.0625 16.199219 C 26.042969 16.3125 26.023438 16.417969 26.003906 16.507812 C 25.984375 16.605469 25.96875 16.6875 25.953125 16.753906 C 25.945312 16.65625 25.9375 16.550781 25.917969 16.453125 C 25.863281 16.078125 25.753906 15.703125 25.550781 15.296875 C 25.355469 14.890625 25.066406 14.453125 24.789062 14.078125 C 24.511719 13.703125 24.238281 13.382812 24.027344 13.09375 C 23.816406 12.804688 23.671875 12.539062 23.566406 12.28125 C 23.46875 12.023438 23.40625 11.769531 23.382812 11.539062 C 23.355469 11.304688 23.367188 11.101562 23.351562 10.960938 C 23.34375 10.890625 23.328125 10.839844 23.324219 10.804688 Z M 22.828125 13.785156 C 22.910156 13.941406 23.082031 14.21875 23.191406 14.414062 C 23.308594 14.605469 23.363281 14.71875 23.402344 14.785156 C 23.445312 14.855469 23.476562 14.878906 23.480469 14.867188 C 23.492188 14.855469 23.476562 14.808594 23.398438 14.664062 C 23.320312 14.515625 23.183594 14.269531 23.078125 14.082031 C 23.003906 13.9375 22.949219 13.832031 22.902344 13.753906 C 22.992188 13.832031 23.125 13.972656 23.289062 14.117188 C 23.476562 14.289062 23.707031 14.472656 23.941406 14.675781 C 24.175781 14.878906 24.417969 15.097656 24.632812 15.347656 C 24.851562 15.597656 25.035156 15.871094 25.167969 16.113281 C 25.308594 16.355469 25.398438 16.574219 25.46875 16.851562 C 25.539062 17.125 25.597656 17.460938 25.617188 17.765625 C 25.628906 18.0625 25.613281 18.328125 25.59375 18.507812 C 25.578125 18.742188 25.613281 18.898438 25.558594 19.109375 C 25.554688 19.023438 25.554688 18.898438 25.539062 18.757812 C 25.527344 18.617188 25.503906 18.457031 25.453125 18.269531 C 25.402344 18.082031 25.320312 17.867188 25.265625 17.738281 C 25.210938 17.613281 25.179688 17.578125 25.164062 17.566406 C 25.144531 17.554688 25.140625 17.570312 25.164062 17.628906 C 25.191406 17.691406 25.25 17.800781 25.300781 17.949219 C 25.355469 18.105469 25.40625 18.300781 25.433594 18.550781 C 25.457031 18.796875 25.464844 19.09375 25.464844 19.269531 C 25.464844 19.316406 25.464844 19.351562 25.460938 19.378906 C 25.417969 19.496094 25.363281 19.628906 25.296875 19.761719 C 25.171875 20.011719 25.039062 20.234375 24.9375 20.421875 L 24.9375 20.425781 C 25.074219 20.054688 25.132812 19.828125 25.15625 19.609375 C 25.183594 19.378906 25.171875 19.15625 25.117188 18.921875 C 25.0625 18.691406 24.960938 18.453125 24.777344 18.144531 C 24.597656 17.839844 24.332031 17.46875 24.070312 17.089844 C 23.808594 16.714844 23.550781 16.339844 23.351562 15.917969 C 23.152344 15.492188 23.015625 15.023438 22.929688 14.644531 C 22.84375 14.269531 22.808594 13.988281 22.792969 13.835938 C 22.789062 13.773438 22.785156 13.730469 22.789062 13.710938 C 22.800781 13.730469 22.8125 13.757812 22.828125 13.785156 " fill-opacity="1" fill-rule="evenodd"/></g></g></g></g></g></g></svg>